<svg width="254" height="171" viewBox="0 0 254 171" fill="none" xmlns="http://www.w3.org/2000/svg">
<path d="M133 0H167.437V170.933H133V0Z" fill="#50FA99"/>
<path d="M254 76H217.558V50.5576C217.558 38.8662 207.709 34.1264 197.532 34.1264H167V0H220.513C238.242 0 254 11.3755 254 34.1264V76Z" fill="#FA5E2A"/>
<path d="M254 96H217.558V119.848C217.558 131.677 207.709 136.472 197.532 136.472H167V171H220.513C238.242 171 254 159.491 254 136.472V96Z" fill="#FA8037"/>
<rect y="1" width="102" height="33" fill="#50FA99"/>
<rect y="138" width="102" height="33" fill="#FAB743"/>
<path d="M0 138V34H32.5V69.551H84V102.98H32.5V138H0Z" fill="#FA8037"/>
</svg>
