<svg width="414" height="123" viewBox="0 0 414 123" fill="none" xmlns="http://www.w3.org/2000/svg">
<path d="M123.598 41.3832C123.598 46.47 122.969 51.0138 121.712 55.0146C120.454 59.0154 118.74 62.559 116.568 65.6454C114.453 68.6745 111.995 71.2751 109.195 73.447C106.394 75.6188 103.451 77.4192 100.365 78.8481C97.3353 80.2198 94.249 81.22 91.1055 81.8487C88.0191 82.4774 85.1042 82.7917 82.3608 82.7917L128.913 123H94.449L47.9823 82.7917H31.9505V60.5014H82.3608C85.1614 60.2728 87.7048 59.7013 89.991 58.7868C92.3343 57.8152 94.3347 56.5292 95.9922 54.9289C97.7068 53.3285 99.0214 51.4139 99.9359 49.1848C100.85 46.8986 101.308 44.2981 101.308 41.3832V27.3232C101.308 26.0658 101.136 25.1227 100.793 24.494C100.507 23.8082 100.107 23.3224 99.5929 23.0366C99.1357 22.6937 98.6213 22.4936 98.0498 22.4365C97.5354 22.3793 97.0496 22.3507 96.5923 22.3507H23.0343V123H0.744041V11.2913C0.744041 9.74815 1.02981 8.29071 1.60136 6.919C2.17291 5.54729 2.94449 4.34704 3.91612 3.31826C4.9449 2.28947 6.14515 1.48931 7.51686 0.917762C8.88857 0.346216 10.3746 0.060443 11.9749 0.060443H96.5923C101.565 0.060443 105.766 0.974917 109.195 2.80386C112.624 4.57566 115.396 6.83326 117.511 9.57668C119.683 12.263 121.226 15.1778 122.14 18.3213C123.112 21.4648 123.598 24.4083 123.598 27.1517V41.3832ZM268.656 71.5609C268.656 79.0481 267.342 85.9352 264.713 92.2222C262.141 98.5093 258.568 103.939 253.996 108.511C249.424 113.027 243.994 116.57 237.707 119.142C231.42 121.714 224.59 123 217.217 123H157.033C155.433 123 153.947 122.714 152.575 122.143C151.204 121.571 150.003 120.8 148.975 119.828C148.003 118.799 147.231 117.599 146.66 116.227C146.088 114.855 145.802 113.369 145.802 111.769V11.2913C145.802 9.74815 146.088 8.29071 146.66 6.919C147.231 5.54729 148.003 4.34704 148.975 3.31826C150.003 2.28947 151.204 1.48931 152.575 0.917762C153.947 0.346216 155.433 0.060443 157.033 0.060443H217.217C224.59 0.060443 231.42 1.34642 237.707 3.91838C243.994 6.49034 249.424 10.0625 253.996 14.6349C258.568 19.1501 262.141 24.5798 264.713 30.9239C267.342 37.2109 268.656 44.0695 268.656 51.4996V71.5609ZM246.366 51.4996C246.366 47.1558 245.652 43.1836 244.223 39.5829C242.851 35.9821 240.879 32.9243 238.307 30.4095C235.735 27.8376 232.649 25.8657 229.048 24.494C225.505 23.0652 221.561 22.3507 217.217 22.3507H168.093V100.71H217.217C221.561 100.71 225.505 100.024 229.048 98.6521C232.649 97.2233 235.735 95.2514 238.307 92.7366C240.879 90.1647 242.851 87.1069 244.223 83.5633C245.652 79.9626 246.366 75.9618 246.366 71.5609V51.4996ZM413.029 51.4996C413.029 56.5863 412.4 61.1301 411.143 65.131C409.885 69.1318 408.171 72.6754 405.999 75.7617C403.884 78.7909 401.426 81.3914 398.626 83.5633C395.825 85.7352 392.882 87.507 389.795 88.8787C386.766 90.2504 383.68 91.2506 380.536 91.8793C377.45 92.508 374.535 92.8224 371.792 92.8224H321.381V70.5321H371.792C374.649 70.3035 377.221 69.7319 379.508 68.8174C381.851 67.8458 383.851 66.5598 385.509 64.9595C387.166 63.3592 388.452 61.4445 389.367 59.2155C390.281 56.9293 390.739 54.3573 390.739 51.4996V41.3832C390.453 38.5826 389.853 36.0107 388.938 33.6674C388.024 31.324 386.766 29.3236 385.166 27.6661C383.623 26.0086 381.737 24.7227 379.508 23.8082C377.279 22.8366 374.707 22.3507 371.792 22.3507H321.553C318.581 22.3507 316.323 23.1223 314.78 24.6655C313.237 26.2087 312.465 28.4377 312.465 31.3526V123H290.175V31.3526C290.175 25.6371 291.204 20.779 293.261 16.7782C295.376 12.7773 297.977 9.54811 301.063 7.09046C304.206 4.63281 307.607 2.86102 311.265 1.77508C314.923 0.631989 318.295 0.060443 321.381 0.060443H371.792C376.821 0.060443 381.337 0.717721 385.337 2.03228C389.338 3.28968 392.853 5.00432 395.882 7.17619C398.969 9.29091 401.569 11.7486 403.684 14.5491C405.856 17.3497 407.628 20.2932 408.999 23.3795C410.428 26.4087 411.457 29.4951 412.086 32.6386C412.714 35.7249 413.029 38.6398 413.029 41.3832V51.4996Z" fill="#3E16FF"/>
</svg>
